<mxfile host="app.diagrams.net" modified="2022-03-09T05:26:27.891Z" agent="5.0 (Macintosh; Intel Mac OS X 10_12_6) AppleWebKit/537.36 (KHTML, like Gecko) Chrome/98.0.4758.109 Safari/537.36" etag="afWpL0F0vZjTtdRdZknQ" version="14.8.1" type="github">
  <diagram id="tsuZ4sDttuWLKz7501ep" name="Page-1">
    <mxGraphModel dx="543" dy="405" grid="1" gridSize="10" guides="1" tooltips="1" connect="1" arrows="1" fold="1" page="1" pageScale="1" pageWidth="1169" pageHeight="827" math="0" shadow="0">
      <root>
        <mxCell id="0" />
        <mxCell id="1" parent="0" />
        <mxCell id="H0EuKMCbpfoYSFZ41KcV-1" value="0" style="rounded=0;whiteSpace=wrap;html=1;" vertex="1" parent="1">
          <mxGeometry x="20" y="43" width="20" height="20" as="geometry" />
        </mxCell>
        <mxCell id="H0EuKMCbpfoYSFZ41KcV-2" value="0" style="rounded=0;whiteSpace=wrap;html=1;" vertex="1" parent="1">
          <mxGeometry x="40" y="43" width="20" height="20" as="geometry" />
        </mxCell>
        <mxCell id="H0EuKMCbpfoYSFZ41KcV-4" value="..." style="rounded=0;whiteSpace=wrap;html=1;" vertex="1" parent="1">
          <mxGeometry x="60" y="43" width="20" height="20" as="geometry" />
        </mxCell>
        <mxCell id="H0EuKMCbpfoYSFZ41KcV-6" value="0" style="rounded=0;whiteSpace=wrap;html=1;" vertex="1" parent="1">
          <mxGeometry x="80" y="43" width="20" height="20" as="geometry" />
        </mxCell>
        <mxCell id="H0EuKMCbpfoYSFZ41KcV-9" value="0" style="rounded=0;whiteSpace=wrap;html=1;" vertex="1" parent="1">
          <mxGeometry x="126" y="43" width="20" height="20" as="geometry" />
        </mxCell>
        <mxCell id="H0EuKMCbpfoYSFZ41KcV-10" value="0" style="rounded=0;whiteSpace=wrap;html=1;" vertex="1" parent="1">
          <mxGeometry x="146" y="43" width="20" height="20" as="geometry" />
        </mxCell>
        <mxCell id="H0EuKMCbpfoYSFZ41KcV-11" value="..." style="rounded=0;whiteSpace=wrap;html=1;" vertex="1" parent="1">
          <mxGeometry x="166" y="43" width="20" height="20" as="geometry" />
        </mxCell>
        <mxCell id="H0EuKMCbpfoYSFZ41KcV-12" value="0" style="rounded=0;whiteSpace=wrap;html=1;" vertex="1" parent="1">
          <mxGeometry x="186" y="43" width="20" height="20" as="geometry" />
        </mxCell>
        <mxCell id="H0EuKMCbpfoYSFZ41KcV-13" value="1" style="rounded=0;whiteSpace=wrap;html=1;fillColor=#ffe6cc;strokeColor=#d79b00;" vertex="1" parent="1">
          <mxGeometry x="103" y="43" width="20" height="20" as="geometry" />
        </mxCell>
        <mxCell id="H0EuKMCbpfoYSFZ41KcV-14" value="" style="endArrow=none;dashed=1;html=1;entryX=1;entryY=1;entryDx=0;entryDy=0;" edge="1" parent="1" target="H0EuKMCbpfoYSFZ41KcV-6">
          <mxGeometry width="50" height="50" relative="1" as="geometry">
            <mxPoint x="100" y="83" as="sourcePoint" />
            <mxPoint x="240" y="133" as="targetPoint" />
          </mxGeometry>
        </mxCell>
        <mxCell id="H0EuKMCbpfoYSFZ41KcV-15" value="" style="endArrow=none;dashed=1;html=1;exitX=0;exitY=1;exitDx=0;exitDy=0;" edge="1" parent="1" source="H0EuKMCbpfoYSFZ41KcV-1">
          <mxGeometry width="50" height="50" relative="1" as="geometry">
            <mxPoint x="110" y="93" as="sourcePoint" />
            <mxPoint x="20" y="83" as="targetPoint" />
          </mxGeometry>
        </mxCell>
        <mxCell id="H0EuKMCbpfoYSFZ41KcV-16" value="" style="endArrow=openThin;startArrow=openThin;html=1;endFill=0;startFill=0;" edge="1" parent="1">
          <mxGeometry width="50" height="50" relative="1" as="geometry">
            <mxPoint x="20" y="73" as="sourcePoint" />
            <mxPoint x="100" y="73" as="targetPoint" />
          </mxGeometry>
        </mxCell>
        <mxCell id="H0EuKMCbpfoYSFZ41KcV-17" value="&lt;i&gt;&lt;font face=&quot;Courier New&quot;&gt;i-1&lt;/font&gt;&lt;/i&gt;" style="edgeLabel;html=1;align=center;verticalAlign=middle;resizable=0;points=[];" vertex="1" connectable="0" parent="H0EuKMCbpfoYSFZ41KcV-16">
          <mxGeometry x="-0.0205" y="1" relative="1" as="geometry">
            <mxPoint as="offset" />
          </mxGeometry>
        </mxCell>
        <mxCell id="H0EuKMCbpfoYSFZ41KcV-18" value="0" style="rounded=0;whiteSpace=wrap;html=1;" vertex="1" parent="1">
          <mxGeometry x="20" y="103" width="20" height="20" as="geometry" />
        </mxCell>
        <mxCell id="H0EuKMCbpfoYSFZ41KcV-19" value="0" style="rounded=0;whiteSpace=wrap;html=1;" vertex="1" parent="1">
          <mxGeometry x="40" y="103" width="20" height="20" as="geometry" />
        </mxCell>
        <mxCell id="H0EuKMCbpfoYSFZ41KcV-20" value="..." style="rounded=0;whiteSpace=wrap;html=1;" vertex="1" parent="1">
          <mxGeometry x="60" y="103" width="20" height="20" as="geometry" />
        </mxCell>
        <mxCell id="H0EuKMCbpfoYSFZ41KcV-21" value="0" style="rounded=0;whiteSpace=wrap;html=1;" vertex="1" parent="1">
          <mxGeometry x="80" y="103" width="20" height="20" as="geometry" />
        </mxCell>
        <mxCell id="H0EuKMCbpfoYSFZ41KcV-22" value="0" style="rounded=0;whiteSpace=wrap;html=1;" vertex="1" parent="1">
          <mxGeometry x="126" y="103" width="20" height="20" as="geometry" />
        </mxCell>
        <mxCell id="H0EuKMCbpfoYSFZ41KcV-23" value="0" style="rounded=0;whiteSpace=wrap;html=1;" vertex="1" parent="1">
          <mxGeometry x="146" y="103" width="20" height="20" as="geometry" />
        </mxCell>
        <mxCell id="H0EuKMCbpfoYSFZ41KcV-24" value="..." style="rounded=0;whiteSpace=wrap;html=1;" vertex="1" parent="1">
          <mxGeometry x="166" y="103" width="20" height="20" as="geometry" />
        </mxCell>
        <mxCell id="H0EuKMCbpfoYSFZ41KcV-25" value="0" style="rounded=0;whiteSpace=wrap;html=1;" vertex="1" parent="1">
          <mxGeometry x="186" y="103" width="20" height="20" as="geometry" />
        </mxCell>
        <mxCell id="H0EuKMCbpfoYSFZ41KcV-26" value="&lt;span style=&quot;font-size: 8.33333px&quot;&gt;&lt;font face=&quot;Times New Roman&quot;&gt;&lt;i&gt;f&lt;sub&gt;i&lt;/sub&gt;&lt;/i&gt;&lt;/font&gt;&lt;/span&gt;" style="rounded=0;whiteSpace=wrap;html=1;fillColor=#ffe6cc;strokeColor=#d79b00;" vertex="1" parent="1">
          <mxGeometry x="103" y="103" width="20" height="20" as="geometry" />
        </mxCell>
        <mxCell id="H0EuKMCbpfoYSFZ41KcV-27" value="" style="endArrow=none;dashed=1;html=1;entryX=1;entryY=1;entryDx=0;entryDy=0;" edge="1" parent="1" target="H0EuKMCbpfoYSFZ41KcV-21">
          <mxGeometry width="50" height="50" relative="1" as="geometry">
            <mxPoint x="100" y="143" as="sourcePoint" />
            <mxPoint x="240" y="193" as="targetPoint" />
          </mxGeometry>
        </mxCell>
        <mxCell id="H0EuKMCbpfoYSFZ41KcV-28" value="" style="endArrow=none;dashed=1;html=1;exitX=0;exitY=1;exitDx=0;exitDy=0;" edge="1" parent="1" source="H0EuKMCbpfoYSFZ41KcV-18">
          <mxGeometry width="50" height="50" relative="1" as="geometry">
            <mxPoint x="110" y="153" as="sourcePoint" />
            <mxPoint x="20" y="143" as="targetPoint" />
          </mxGeometry>
        </mxCell>
        <mxCell id="H0EuKMCbpfoYSFZ41KcV-29" value="" style="endArrow=openThin;startArrow=openThin;html=1;endFill=0;startFill=0;" edge="1" parent="1">
          <mxGeometry width="50" height="50" relative="1" as="geometry">
            <mxPoint x="20" y="133" as="sourcePoint" />
            <mxPoint x="100" y="133" as="targetPoint" />
          </mxGeometry>
        </mxCell>
        <mxCell id="H0EuKMCbpfoYSFZ41KcV-30" value="&lt;i&gt;&lt;font face=&quot;Courier New&quot;&gt;i-1&lt;/font&gt;&lt;/i&gt;" style="edgeLabel;html=1;align=center;verticalAlign=middle;resizable=0;points=[];" vertex="1" connectable="0" parent="H0EuKMCbpfoYSFZ41KcV-29">
          <mxGeometry x="-0.0205" y="1" relative="1" as="geometry">
            <mxPoint as="offset" />
          </mxGeometry>
        </mxCell>
        <mxCell id="H0EuKMCbpfoYSFZ41KcV-31" value="" style="endArrow=block;html=1;exitX=0.5;exitY=1;exitDx=0;exitDy=0;entryX=0.5;entryY=0;entryDx=0;entryDy=0;endFill=0;dashed=1;" edge="1" parent="1" source="H0EuKMCbpfoYSFZ41KcV-13" target="H0EuKMCbpfoYSFZ41KcV-26">
          <mxGeometry width="50" height="50" relative="1" as="geometry">
            <mxPoint x="190" y="173" as="sourcePoint" />
            <mxPoint x="240" y="123" as="targetPoint" />
          </mxGeometry>
        </mxCell>
        <mxCell id="H0EuKMCbpfoYSFZ41KcV-32" value="" style="endArrow=none;dashed=1;html=1;entryX=1;entryY=1;entryDx=0;entryDy=0;" edge="1" parent="1">
          <mxGeometry width="50" height="50" relative="1" as="geometry">
            <mxPoint x="206" y="143" as="sourcePoint" />
            <mxPoint x="206" y="123" as="targetPoint" />
          </mxGeometry>
        </mxCell>
        <mxCell id="H0EuKMCbpfoYSFZ41KcV-33" value="" style="endArrow=none;dashed=1;html=1;exitX=0;exitY=1;exitDx=0;exitDy=0;" edge="1" parent="1" source="H0EuKMCbpfoYSFZ41KcV-22">
          <mxGeometry width="50" height="50" relative="1" as="geometry">
            <mxPoint x="20" y="145" as="sourcePoint" />
            <mxPoint x="126" y="143" as="targetPoint" />
          </mxGeometry>
        </mxCell>
        <mxCell id="H0EuKMCbpfoYSFZ41KcV-34" value="" style="endArrow=openThin;startArrow=openThin;html=1;endFill=0;startFill=0;" edge="1" parent="1">
          <mxGeometry width="50" height="50" relative="1" as="geometry">
            <mxPoint x="127" y="133" as="sourcePoint" />
            <mxPoint x="207" y="133" as="targetPoint" />
          </mxGeometry>
        </mxCell>
        <mxCell id="H0EuKMCbpfoYSFZ41KcV-35" value="&lt;i&gt;&lt;font face=&quot;Courier New&quot;&gt;n-i&lt;/font&gt;&lt;/i&gt;" style="edgeLabel;html=1;align=center;verticalAlign=middle;resizable=0;points=[];" vertex="1" connectable="0" parent="H0EuKMCbpfoYSFZ41KcV-34">
          <mxGeometry x="-0.0205" y="1" relative="1" as="geometry">
            <mxPoint as="offset" />
          </mxGeometry>
        </mxCell>
        <mxCell id="H0EuKMCbpfoYSFZ41KcV-36" value="" style="endArrow=none;dashed=1;html=1;entryX=1;entryY=1;entryDx=0;entryDy=0;" edge="1" parent="1">
          <mxGeometry width="50" height="50" relative="1" as="geometry">
            <mxPoint x="206" y="83" as="sourcePoint" />
            <mxPoint x="206" y="63" as="targetPoint" />
          </mxGeometry>
        </mxCell>
        <mxCell id="H0EuKMCbpfoYSFZ41KcV-37" value="" style="endArrow=none;dashed=1;html=1;exitX=0;exitY=1;exitDx=0;exitDy=0;" edge="1" parent="1">
          <mxGeometry width="50" height="50" relative="1" as="geometry">
            <mxPoint x="126" y="63" as="sourcePoint" />
            <mxPoint x="126" y="83" as="targetPoint" />
          </mxGeometry>
        </mxCell>
        <mxCell id="H0EuKMCbpfoYSFZ41KcV-38" value="" style="endArrow=openThin;startArrow=openThin;html=1;endFill=0;startFill=0;" edge="1" parent="1">
          <mxGeometry width="50" height="50" relative="1" as="geometry">
            <mxPoint x="127" y="73" as="sourcePoint" />
            <mxPoint x="207" y="73" as="targetPoint" />
          </mxGeometry>
        </mxCell>
        <mxCell id="H0EuKMCbpfoYSFZ41KcV-39" value="&lt;i&gt;&lt;font face=&quot;Courier New&quot;&gt;n-i&lt;/font&gt;&lt;/i&gt;" style="edgeLabel;html=1;align=center;verticalAlign=middle;resizable=0;points=[];" vertex="1" connectable="0" parent="H0EuKMCbpfoYSFZ41KcV-38">
          <mxGeometry x="-0.0205" y="1" relative="1" as="geometry">
            <mxPoint as="offset" />
          </mxGeometry>
        </mxCell>
      </root>
    </mxGraphModel>
  </diagram>
</mxfile>
